<svg viewBox="0 0 800 400" xmlns="http://www.w3.org/2000/svg">
  <!-- Tally Script Text -->
  <g transform="translate(50, 50)">
    <!-- T -->
    <path d="M0 20 L0 0 L80 0 L80 20 L50 20 L50 120 L30 120 L30 20 Z" fill="#2D2D2D" stroke="#FF4444" stroke-width="2"/>
    
    <!-- a -->
    <path d="M90 50 Q90 40 100 40 Q110 40 110 50 L110 120 L90 120 L90 110 Q90 120 80 120 Q70 120 70 110 Q70 100 80 100 L90 100 Z M90 80 L80 80 Q85 80 85 85 Q85 90 80 90 Q75 90 75 85 Q75 80 80 80 Z" fill="#2D2D2D" stroke="#FF4444" stroke-width="2"/>
    
    <!-- l -->
    <path d="M130 0 L130 120 L110 120 L110 0 Z" fill="#2D2D2D" stroke="#FF4444" stroke-width="2"/>
    
    <!-- l -->
    <path d="M150 0 L150 120 L130 120 L130 0 Z" fill="#2D2D2D" stroke="#FF4444" stroke-width="2"/>
    
    <!-- y -->
    <path d="M170 50 L170 90 L180 120 L160 120 L155 100 L150 120 L130 120 L140 90 L140 50 L160 50 L160 80 L170 50 Z M170 120 Q170 130 160 130 Q150 130 150 120" fill="#2D2D2D" stroke="#FF4444" stroke-width="2"/>
  </g>
  
  <!-- Power of Simplicity Text -->
  <g transform="translate(50, 250)" fill="#2D2D2D" font-family="Arial, sans-serif" font-size="24" font-weight="bold" letter-spacing="8">
    <text>POWER OF SIMPLICITY</text>
  </g>
  
  <!-- Stylized underline -->
  <line x1="50" y1="280" x2="650" y2="280" stroke="#FF4444" stroke-width="4"/>
</svg>
